<svg xmlns:xlink="http://www.w3.org/1999/xlink" width="24" height="24" viewBox="0 0 24 24" fill="none" xmlns="http://www.w3.org/2000/svg"><path d="M12 7V17" stroke="#DBDFE7" stroke-width="1.6px" stroke-linecap="round" stroke-linejoin="round" fill="none"></path><path d="M14.5 8.5H10.75C10.2859 8.5 9.84075 8.68437 9.51256 9.01256C9.18437 9.34075 9 9.78587 9 10.25C9 10.7141 9.18437 11.1592 9.51256 11.4874C9.84075 11.8156 10.2859 12 10.75 12H13.25C13.7141 12 14.1592 12.1844 14.4874 12.5126C14.8156 12.8408 15 13.2859 15 13.75C15 14.2141 14.8156 14.6592 14.4874 14.9874C14.1592 15.3156 13.7141 15.5 13.25 15.5H9" stroke="#DBDFE7" stroke-width="1.6px" stroke-linecap="round" stroke-linejoin="round" fill="none"></path><path d="M9.625 18.75L11.5 20.625L9.625 22.5" stroke="#FFFFFF" stroke-width="1.6px" stroke-linecap="round" stroke-linejoin="round" fill="none"></path><path d="M14.375 5.25L12.5 3.375L14.375 1.5" stroke="#FFFFFF" stroke-width="1.6px" stroke-linecap="round" stroke-linejoin="round" fill="none"></path><path fill-rule="evenodd" clip-rule="evenodd" d="M4.52618 4.90099C4.77682 4.52504 5.19877 4.29922 5.65061 4.29922H6.99922C7.44105 4.29922 7.79922 3.94105 7.79922 3.49922C7.79922 3.05739 7.44105 2.69922 6.99922 2.69922H5.65061C4.6638 2.69922 3.74229 3.1924 3.1949 4.01347C2.87169 4.49829 2.69922 5.06793 2.69922 5.65061V12.4992V19.1242C2.69922 19.7342 2.94154 20.3192 3.37287 20.7506C3.80421 21.1819 4.38922 21.4242 4.99922 21.4242H11.4992C11.941 21.4242 12.2992 21.066 12.2992 20.6242C12.2992 20.1824 11.941 19.8242 11.4992 19.8242H4.99922C4.81357 19.8242 4.63552 19.7505 4.50424 19.6192C4.37297 19.4879 4.29922 19.3099 4.29922 19.1242V12.4992V5.65061C4.29922 5.38381 4.37819 5.12298 4.52618 4.90099Z" fill="#FFFFFF"></path><path fill-rule="evenodd" clip-rule="evenodd" d="M12.4992 2.57422C12.0574 2.57422 11.6992 2.93239 11.6992 3.37422C11.6992 3.81605 12.0574 4.17422 12.4992 4.17422H18.9992C19.1849 4.17422 19.3629 4.24797 19.4942 4.37924C19.6255 4.51052 19.6992 4.68857 19.6992 4.87422V10.9992V11.4992V18.8478C19.6992 19.1146 19.6202 19.3755 19.4723 19.5974C19.2216 19.9734 18.7997 20.1992 18.3478 20.1992H16.9992C16.5574 20.1992 16.1992 20.5574 16.1992 20.9992C16.1992 21.441 16.5574 21.7992 16.9992 21.7992H18.3478C19.3346 21.7992 20.2562 21.306 20.8035 20.485C21.1267 20.0001 21.2992 19.4305 21.2992 18.8478V11.4992V10.9992V4.87422C21.2992 4.26422 21.0569 3.67921 20.6256 3.24787C20.1942 2.81654 19.6092 2.57422 18.9992 2.57422H12.4992Z" fill="#FFFFFF"></path></svg>