<svg xmlns:xlink="http://www.w3.org/1999/xlink" width="1440" height="355" viewBox="0 0 1440 355" fill="none" xmlns="http://www.w3.org/2000/svg" preserveAspectRatio="xMidYMid slice"><g clip-path="url(#clip-footer-background)" fill="none"><mask id="mask-footer-background" mask-type="alpha" maskUnits="userSpaceOnUse" x="0" y="51" width="1440" height="304" fill="none"><path d="M888.507 77.9696C845.403 73.8697 801.999 69.7414 758.633 66.0895C490.261 43.4893 228.322 35.4244 0 121.681V354.688H1440V81.7927C1285.88 115.765 1090.48 97.1797 888.507 77.9696Z" fill="#C4C4C4"></path></mask><g mask="url(#mask-footer-background)" fill="none"><rect y="13.6182" width="1440" height="341.07" fill="#206EF4"></rect><path d="M0 -16.1024C0 -16.1024 1456.62 -42.8961 1440 -16.1024C1355.27 120.529 1178.12 167.751 947.34 242.537C623.562 347.46 0 354.688 0 354.688V-16.1024Z" fill="url(&quot;#paint-0-linear-footer-background&quot;)"></path><path d="M0 -16.1024C0 -16.1024 1456.62 -42.8961 1440 -16.1024C1355.27 120.529 1178.12 167.751 947.34 242.537C623.562 347.46 0 354.688 0 354.688V-16.1024Z" fill="url(&quot;#paint-1-linear-footer-background&quot;)"></path><path d="M1440 -16.103C1268.44 194.4 523.01 354.688 523.01 354.688H1496.63C1496.63 354.688 1502.99 -93.3885 1440 -16.103Z" fill="url(&quot;#paint-2-linear-footer-background&quot;)"></path><path d="M1440 -16.103C1268.44 194.4 523.01 354.688 523.01 354.688H1496.63C1496.63 354.688 1502.99 -93.3885 1440 -16.103Z" fill="url(&quot;#paint-3-linear-footer-background&quot;)"></path></g></g><defs><linearGradient id="paint-0-linear-footer-background" x1="1440.14" y1="-28.0108" x2="96.2572" y2="570.737" gradientUnits="userSpaceOnUse"><stop stop-color="#649AF7"></stop><stop offset="1" stop-color="#206EF4"></stop></linearGradient><linearGradient id="paint-1-linear-footer-background" x1="0.323313" y1="355.438" x2="1416.03" y2="-103.828" gradientUnits="userSpaceOnUse"><stop stop-color="#649AF7"></stop><stop offset="1" stop-color="#206EF4"></stop></linearGradient><linearGradient id="paint-2-linear-footer-background" x1="523.228" y1="355.432" x2="542.845" y2="-69.1676" gradientUnits="userSpaceOnUse"><stop stop-color="#2672F4"></stop><stop offset="1" stop-color="#649AF7"></stop></linearGradient><linearGradient id="paint-3-linear-footer-background" x1="523.228" y1="355.432" x2="1531.96" y2="132.442" gradientUnits="userSpaceOnUse"><stop stop-color="#649AF7"></stop><stop offset="1" stop-color="#206EF4"></stop></linearGradient><clipPath id="clip-footer-background"><rect width="1440" height="355" fill="white"></rect></clipPath><linearGradient id="paint-0-linear-footer-background" x1="1440.14" y1="-28.0108" x2="96.2572" y2="570.737" gradientUnits="userSpaceOnUse"><stop stop-color="#649AF7"></stop><stop offset="1" stop-color="#206EF4"></stop></linearGradient><linearGradient id="paint-1-linear-footer-background" x1="0.323313" y1="355.438" x2="1416.03" y2="-103.828" gradientUnits="userSpaceOnUse"><stop stop-color="#649AF7"></stop><stop offset="1" stop-color="#206EF4"></stop></linearGradient><linearGradient id="paint-2-linear-footer-background" x1="523.228" y1="355.432" x2="542.845" y2="-69.1676" gradientUnits="userSpaceOnUse"><stop stop-color="#2672F4"></stop><stop offset="1" stop-color="#649AF7"></stop></linearGradient><linearGradient id="paint-3-linear-footer-background" x1="523.228" y1="355.432" x2="1531.96" y2="132.442" gradientUnits="userSpaceOnUse"><stop stop-color="#649AF7"></stop><stop offset="1" stop-color="#206EF4"></stop></linearGradient></defs></svg>