<svg xmlns:xlink="http://www.w3.org/1999/xlink" width="150" height="115" viewBox="0 0 177 136" fill="none" xmlns="http://www.w3.org/2000/svg" class="sc-2e705bde-20 eVLgwA"><path d="M28.0039 33.1638C27.9713 33.3635 27.7858 33.6203 27.4474 33.9342C27.1091 34.2481 26.8136 34.4254 26.5608 34.4662C25.182 34.5589 23.8057 34.6674 22.432 34.7917C21.0898 34.9109 19.7212 35.0668 18.3261 35.2594C18.6939 36.3345 19.046 37.4122 19.3823 38.4925C19.7502 39.5676 20.1023 40.6453 20.4385 41.7255C23.1086 41.1977 25.7393 40.6276 28.3309 40.0151C28.7732 39.9438 29.2384 40.0146 29.7265 40.2276C30.2147 40.4406 30.4791 40.6735 30.5199 40.9262C30.5759 41.2737 30.4847 41.6126 30.2462 41.9428C30.0027 42.2413 29.6806 42.4554 29.2801 42.5848C27.9889 43.0199 26.6743 43.4102 25.3362 43.7556C24.0247 44.0644 22.679 44.3625 21.2991 44.6498C21.6354 45.7301 21.9401 46.8154 22.2132 47.9058C22.5128 48.9596 22.7966 50.0159 23.0646 51.0747C23.1991 51.5068 23.2281 51.9883 23.1517 52.5192C23.1017 53.0135 22.9188 53.2861 22.6029 53.3371C22.3186 53.3829 22.0373 53.3472 21.7591 53.23C21.4809 53.1128 21.2159 52.9773 20.9642 52.8234C20.739 52.6328 20.5428 52.4214 20.3757 52.189C20.2086 51.9567 20.0939 51.7483 20.0318 51.5638C19.2777 48.8979 18.4946 46.2528 17.6824 43.6286C16.9018 40.9994 16.0713 38.362 15.1908 35.7164L13.627 35.9686C13.1848 36.0399 12.7664 36.0588 12.372 36.0251C11.9777 35.9915 11.6551 35.8004 11.4044 35.4519C11.326 35.3673 11.2531 35.217 11.1858 35.0009C11.1502 34.7798 11.1303 34.5561 11.1262 34.3299C11.1537 34.0985 11.2154 33.8779 11.3112 33.668C11.407 33.458 11.5604 33.3037 11.7713 33.2048C12.9728 32.8166 14.2712 32.5261 15.6663 32.3335C17.093 32.1359 18.4826 32.009 19.8349 31.953C21.2137 31.8603 22.5079 31.846 23.7176 31.9102C24.9589 31.9694 26.0289 32.0723 26.9277 32.2191C27.5157 32.4484 27.8745 32.7633 28.0039 33.1638ZM38.7334 37.9971C38.6814 38.8807 38.6447 39.859 38.6233 40.9321C38.5968 41.9736 38.6126 42.9759 38.6706 43.9389C38.7603 44.8969 38.8979 45.7498 39.0833 46.4979C39.3004 47.2408 39.5923 47.7447 39.9592 48.0097C40.5116 48.0178 41.0919 47.6974 41.7003 47.0482C42.3036 46.3675 42.8682 45.5471 43.3941 44.5871C43.92 43.6272 44.3725 42.6142 44.7516 41.5482C45.1256 40.4507 45.362 39.505 45.4609 38.7111C45.5261 38.3116 45.573 37.8989 45.6016 37.4729C45.6301 37.0469 45.6087 36.6128 45.5374 36.1705C45.4966 35.9178 45.6164 35.6554 45.8966 35.3833C46.2034 35.0745 46.4648 34.8865 46.6808 34.8192C46.8337 34.7622 47.0125 34.7657 47.2174 34.8299C47.4538 34.889 47.6663 35.0006 47.8548 35.1647C48.0698 35.2921 48.2609 35.472 48.428 35.7043C48.6217 35.9 48.7388 36.1242 48.7796 36.3769C48.9956 37.3145 49.2585 38.3417 49.5683 39.4587C49.8781 40.5756 50.2037 41.69 50.5451 42.8018C50.918 43.9085 51.2859 44.9837 51.6487 46.0272C52.0115 47.0708 52.3564 48.0038 52.6835 48.8262C52.8343 49.1584 52.8033 49.5686 52.5903 50.0567C52.3773 50.5449 52.1047 50.8643 51.7724 51.0152C51.4983 51.1242 51.1931 51.141 50.8568 51.0656C50.5521 50.9851 50.2902 50.768 50.0711 50.4144C49.8418 49.9976 49.5972 49.486 49.3374 48.8796C49.104 48.2366 48.8681 47.5777 48.6296 46.9031C48.4177 46.1918 48.2134 45.5278 48.0167 44.9113C47.8149 44.2631 47.6626 43.7205 47.5596 43.2833C47.2233 44.2127 46.7948 45.1732 46.274 46.1647C45.7797 47.1196 45.2121 48.0215 44.5711 48.8704C43.9566 49.6826 43.2717 50.3603 42.5166 50.9034C41.7879 51.4099 40.9895 51.6845 40.1212 51.7273C38.832 51.7732 37.6774 50.7439 36.6574 48.6394C36.262 47.7956 35.9777 46.8366 35.8044 45.7625C35.6628 44.6833 35.5711 43.6122 35.5293 42.5493C35.5141 41.4497 35.5248 40.4108 35.5615 39.4325C35.6298 38.449 35.6945 37.6445 35.7557 37.0188C35.7781 36.7558 35.8688 36.5143 36.0278 36.2942C36.1816 36.0425 36.3901 35.9278 36.653 35.9503C37.1421 35.9686 37.6145 36.1842 38.07 36.5969C38.5571 37.0045 38.7783 37.4713 38.7334 37.9971ZM66.9609 34.8061C67.5561 34.6777 68.1792 34.7231 68.8304 34.9422C69.4816 35.1613 69.8607 35.6026 69.9677 36.266C69.9912 36.8133 69.7471 37.2092 69.2355 37.4538C68.7504 37.6616 68.3499 37.7911 68.034 37.842C67.4021 37.9439 66.7255 38.0692 66.004 38.218C65.2824 38.3668 64.5477 38.5339 63.7997 38.7194C63.9046 39.7721 63.9994 40.7616 64.0839 41.688C64.2001 42.6092 64.301 43.4357 64.3866 44.1674C64.4671 44.8675 64.543 45.4387 64.6143 45.881C64.6856 46.3233 64.7396 46.5577 64.7763 46.5842C65.451 46.3457 66.1603 46.0207 66.9042 45.609C67.6746 45.1606 68.4267 44.6989 69.1605 44.2241C69.9207 43.7125 70.6494 43.206 71.3464 42.7046C72.07 42.1666 72.7513 41.6677 73.3903 41.2081C73.6807 40.9992 73.9574 40.906 74.2203 40.9284C74.5148 40.9457 74.7115 41.0599 74.8103 41.2708C74.9296 41.6082 74.951 42.0423 74.8745 42.5732C74.7981 43.1042 74.5876 43.6081 74.2432 44.085C73.8304 44.5406 73.2699 45.0847 72.5617 45.7176C71.8799 46.3137 71.1324 46.9043 70.3191 47.4892C69.5059 48.0742 68.6692 48.6143 67.8091 49.1095C66.9755 49.5681 66.2162 49.885 65.5314 50.0603C64.5042 50.3232 63.6685 50.1663 63.0245 49.5895C62.3804 49.0126 61.9453 48.2239 61.7191 47.2231C61.4928 46.2224 61.2885 45.056 61.1061 43.7241C60.9553 42.387 60.7918 40.971 60.6155 39.476C60.0255 39.636 59.4512 39.7934 58.8927 39.9483C58.3608 40.0665 57.8471 40.198 57.3519 40.3427C56.9412 40.4089 56.4678 40.388 55.9318 40.28C55.4273 40.1669 55.1318 39.8418 55.0452 39.3047C55.0146 39.1152 55.0528 38.8497 55.1598 38.5083C55.2668 38.1669 55.5761 37.8739 56.0877 37.6293C57.3473 37.1993 58.7542 36.7779 60.3083 36.3652C60.1636 34.8651 60.0424 33.4099 59.9446 31.9995C59.8467 30.589 59.7535 29.3075 59.6649 28.1549C59.6353 27.7707 59.6924 27.4212 59.8361 27.1063C59.9798 26.7914 60.1622 26.6161 60.3834 26.5805C60.9153 26.4623 61.4437 26.5229 61.9685 26.7624C62.5199 26.9652 62.8261 27.2562 62.8872 27.6353C62.9341 28.7298 63.0039 29.9664 63.0966 31.3452C63.2209 32.719 63.3503 34.1243 63.4848 35.5612C64.1065 35.3961 64.7016 35.2677 65.2703 35.176C65.8654 35.0476 66.429 34.9243 66.9609 34.8061ZM81.3046 31.1315C81.2526 32.0151 81.2159 32.9934 81.1945 34.0665C81.168 35.108 81.1837 36.1103 81.2418 37.0733C81.3315 38.0312 81.469 38.8842 81.6545 39.6322C81.8716 40.3752 82.1635 40.8791 82.5304 41.1441C83.0827 41.1522 83.6631 40.8317 84.2715 40.1826C84.8748 39.5018 85.4394 38.6815 85.9653 37.7215C86.4911 36.7615 86.9436 35.7486 87.3228 34.6826C87.6968 33.5851 87.9332 32.6394 88.0321 31.8455C88.0973 31.446 88.1442 31.0333 88.1727 30.6073C88.2013 30.1813 88.1799 29.7472 88.1086 29.3049C88.0678 29.0522 88.1875 28.7898 88.4678 28.5177C88.7745 28.2089 89.0359 28.0209 89.252 27.9536C89.4049 27.8965 89.5837 27.9001 89.7885 27.9643C90.025 28.0234 90.2374 28.135 90.426 28.2991C90.641 28.4265 90.8321 28.6064 90.9992 28.8387C91.1928 29.0344 91.31 29.2586 91.3508 29.5113C91.5668 30.4489 91.8297 31.4761 92.1395 32.5931C92.4493 33.71 92.7749 34.8244 93.1162 35.9362C93.4892 37.0429 93.8571 38.1181 94.2199 39.1616C94.5826 40.2052 94.9276 41.1381 95.2547 41.9606C95.4055 42.2928 95.3744 42.703 95.1614 43.1911C94.9484 43.6792 94.6758 43.9987 94.3436 44.1495C94.0695 44.2586 93.7643 44.2754 93.428 44.2C93.1232 44.1195 92.8613 43.9024 92.6422 43.5488C92.413 43.132 92.1684 42.6204 91.9085 42.014C91.6752 41.371 91.4393 40.7121 91.2008 40.0375C90.9888 39.3261 90.7845 38.6622 90.5879 38.0457C90.3861 37.3975 90.2337 36.8548 90.1308 36.4177C89.7945 37.3471 89.366 38.3075 88.8452 39.2991C88.3509 40.254 87.7833 41.1559 87.1423 42.0048C86.5277 42.817 85.8429 43.4946 85.0877 44.0378C84.3591 44.5443 83.5606 44.8189 82.6924 44.8617C81.4032 44.9075 80.2486 43.8782 79.2285 41.7738C78.8331 40.93 78.5488 39.971 78.3756 38.8969C78.234 37.8177 78.1423 36.7466 78.1005 35.6837C78.0852 34.5841 78.096 33.5452 78.1327 32.5668C78.2009 31.5834 78.2657 30.7789 78.3268 30.1531C78.3493 29.8902 78.44 29.6487 78.5989 29.4286C78.7528 29.1769 78.9612 29.0622 79.2242 29.0846C79.7133 29.103 80.1857 29.3185 80.6412 29.7313C81.1283 30.1389 81.3494 30.6057 81.3046 31.1315ZM112.356 23.7414C111.838 24.149 111.291 24.5775 110.715 25.027C110.171 25.4713 109.621 25.9813 109.066 26.5571C108.537 27.0962 108.039 27.7275 107.572 28.451C107.132 29.1379 106.76 29.9435 106.455 30.8678C106.017 32.1702 105.789 33.471 105.772 34.7704C105.749 36.0381 105.803 37.2773 105.934 38.488C106.025 39.0567 105.977 39.664 105.79 40.3101C105.629 40.9195 105.311 41.2625 104.837 41.3389C104.237 41.4357 103.699 41.2145 103.223 40.6754C102.774 40.0996 102.44 39.5376 102.222 38.9893C101.323 36.8329 100.524 34.6928 99.8252 32.5691C99.1211 30.4137 98.4669 28.2664 97.8626 26.1274C97.7912 25.6851 97.8718 25.3804 98.1041 25.2132C98.3681 25.041 98.6763 24.9427 99.0289 24.9182C99.4131 24.8887 99.7917 24.9249 100.165 25.0268C100.538 25.1287 100.784 25.3483 100.903 25.6856C101.218 26.8342 101.575 28.0408 101.973 29.3055C102.366 30.5386 102.732 31.5979 103.069 32.4835C103.022 31.389 103.202 30.2904 103.607 29.1878C104.013 28.0851 104.56 27.0569 105.249 26.103C105.969 25.1441 106.805 24.2962 107.756 23.5594C108.738 22.8175 109.767 22.2627 110.842 21.8948C111.306 21.7552 111.701 21.6915 112.027 21.7037C112.353 21.716 112.592 21.7909 112.744 21.9285C112.896 22.066 112.952 22.3162 112.914 22.679C112.906 23.0367 112.72 23.3908 112.356 23.7414ZM129.421 26.3375C128.306 27.2628 127.071 28.0454 125.715 28.6854C124.355 29.2938 122.853 29.7304 121.21 29.9954C121.452 31.0909 121.91 31.9245 122.586 32.4962C123.257 33.0364 124.028 33.3008 124.902 33.2896C125.417 33.2713 125.92 33.174 126.411 32.9977C126.932 32.8163 127.399 32.5952 127.811 32.3343C128.249 32.0367 128.637 31.731 128.976 31.4171C129.314 31.1032 129.605 30.797 129.849 30.4984C130.092 30.1998 130.367 29.9935 130.672 29.8793C130.973 29.7336 131.208 29.6796 131.376 29.7173C131.843 29.804 132.078 30.2524 132.079 31.0625C131.736 32.155 131.15 33.1409 130.319 34.0204C129.484 34.8683 128.497 35.4812 127.358 35.8593C126.378 36.2119 125.328 36.3326 124.208 36.2215C123.088 36.1104 122.035 35.713 121.05 35.0291C120.206 34.4197 119.515 33.6559 118.978 32.7377C118.441 31.8195 118.041 30.8468 117.778 29.8195C117.526 28.8555 117.454 27.9108 117.565 26.9854C117.706 26.055 118.008 25.2122 118.469 24.4571C118.926 23.6704 119.545 22.9871 120.327 22.4072C121.108 21.8274 122.063 21.4142 123.19 21.1676C124.533 20.8537 125.806 20.9077 127.008 21.3297C128.211 21.7516 129.12 22.4639 129.736 23.4667C130.085 24.0262 130.232 24.5373 130.177 24.9999C130.154 25.4575 129.902 25.9034 129.421 26.3375ZM123.451 23.994C123.146 24.1081 122.816 24.2747 122.462 24.4938C122.14 24.7078 121.842 24.9667 121.566 25.2704C121.318 25.5374 121.093 25.8492 120.891 26.2059C120.716 26.5259 120.643 26.878 120.672 27.2622C121.209 27.1756 121.786 27.0339 122.403 26.8372C123.051 26.6355 123.665 26.423 124.245 26.1998C124.851 25.94 125.392 25.6745 125.867 25.4034C126.373 25.1273 126.782 24.8506 127.094 24.5734C126.744 24.0139 126.212 23.727 125.497 23.7128C124.808 23.6618 124.126 23.7555 123.451 23.994Z" fill="#4286FD"></path><path d="M65.3666 130.979C64.9269 130.802 64.4815 130.346 64.0302 129.612C63.5616 128.85 63.106 127.982 62.6635 127.009C62.2037 126.008 61.7406 124.969 61.2743 123.894C60.8135 122.796 60.3596 121.821 59.9127 120.967C59.4485 120.085 58.9749 119.394 58.492 118.893C58.0146 118.37 57.538 118.196 57.0624 118.371L49.6139 126.714C49.5292 126.766 49.3706 126.825 49.1382 126.89C48.8831 126.949 48.7099 126.968 48.6187 126.946C48.5275 126.925 48.4303 126.877 48.3272 126.805C48.2296 126.709 48.1232 126.599 48.0082 126.475C47.8932 126.352 47.801 126.233 47.7315 126.12C47.6447 125.979 47.578 125.855 47.5314 125.747L56.0812 116.728C56.5765 116.267 57.1352 116.148 57.7572 116.369C58.3564 116.584 58.9723 117.032 59.605 117.713C60.243 118.371 60.8772 119.197 61.5075 120.191C62.1378 121.185 62.7344 122.219 63.2973 123.293C63.8603 124.367 64.3689 125.416 64.8233 126.44C65.2777 127.464 65.6567 128.35 65.9603 129.097C66.2466 129.816 66.4314 130.354 66.5149 130.711C66.5809 131.04 66.5326 131.041 66.3699 130.713C66.3101 130.963 66.1607 131.084 65.9219 131.076C65.6885 131.044 65.5034 131.012 65.3666 130.979Z" fill="#4286FD"></path><path opacity="0.75" d="M2 109.043C33.3333 96.8766 99.4 72.8433 113 74.0433C130 75.5433 90.5 87.0433 90.5 90.5433C90.5 93.3433 146.833 80.71 175 74.0433" stroke="#4286FD" stroke-width="2.8px" stroke-linecap="round" fill="none"></path></svg>