<svg xmlns:xlink="http://www.w3.org/1999/xlink" width="152" height="52" viewBox="0 0 152 52" fill="none" xmlns="http://www.w3.org/2000/svg" class="sc-955c7f53-2 qRtsP"><path d="M6.31718 5.05449C5.97504 7.6508 5.6987 10.3564 5.48815 13.1713C5.28183 15.9625 5.12025 18.6398 5.00341 21.2033C4.88848 22.2555 4.50997 22.7364 3.86785 22.646C3.7261 22.6206 3.59279 22.5481 3.46793 22.4282C3.34729 22.2847 3.24268 22.1198 3.15411 21.9333C3.06554 21.7468 2.97909 21.5485 2.89474 21.3384C2.83402 21.1325 2.80451 20.9565 2.80622 20.8106C2.83257 19.5719 2.88341 18.2644 2.95872 16.8882C3.03403 15.512 3.12116 14.1379 3.22009 12.7659C3.34688 11.3745 3.47914 10.0206 3.61689 8.70433C3.75463 7.38803 3.90881 6.18438 4.07943 5.09338C4.22802 4.53481 4.39517 4.07708 4.58086 3.72018C4.77077 3.33966 5.05262 3.195 5.42641 3.28618C5.82382 3.38159 6.07777 3.59764 6.18825 3.93434C6.32659 4.25163 6.36956 4.62501 6.31718 5.05449ZM19.5611 11.7735C20.2234 12.1601 20.7443 12.6554 21.124 13.2597C21.5272 13.8681 21.7996 14.5263 21.9413 15.2343C22.0872 15.9186 22.1107 16.6055 22.0118 17.2948C21.9366 17.9884 21.7517 18.6136 21.4572 19.1705C21.0791 19.7856 20.6322 20.3761 20.1165 20.9423C19.6009 21.5084 19.0388 21.993 18.4304 22.3963C17.822 22.7995 17.1595 23.0956 16.4431 23.2845C15.7267 23.4734 14.9669 23.496 14.1636 23.3525C13.195 23.1793 12.42 22.8092 11.8387 22.2421C11.2574 21.675 10.8411 21.0033 10.5898 20.2269C10.3384 19.4506 10.2339 18.603 10.2763 17.6841C10.3422 16.7694 10.5263 15.8759 10.8285 15.0034C11.0413 14.3588 11.3089 13.7484 11.6313 13.1721C11.9815 12.5764 12.3761 12.074 12.8149 11.6649C13.258 11.2321 13.7314 10.9022 14.2352 10.6753C14.7626 10.4526 15.3216 10.3941 15.9123 10.4996C16.243 10.5588 16.6438 10.7035 17.1146 10.934C17.5896 11.1408 18.0187 11.4003 18.4017 11.7126C18.7595 11.4839 19.1459 11.5043 19.5611 11.7735ZM17.752 14.1198C17.5217 13.908 17.2526 13.6404 16.9446 13.3172C16.6645 12.9746 16.3946 12.7801 16.1347 12.7336C15.8512 12.6829 15.5444 12.7622 15.2145 12.9714C14.9081 13.1849 14.617 13.4498 14.341 13.7661C14.0929 14.0631 13.8663 14.3761 13.6612 14.7052C13.4561 15.0342 13.3109 15.3008 13.2257 15.505C13.0915 15.8467 12.9682 16.2636 12.8559 16.7555C12.7436 17.2474 12.6904 17.7499 12.6962 18.2629C12.7062 18.7523 12.8053 19.221 12.9934 19.6691C13.2094 20.0978 13.5742 20.4434 14.0881 20.7059C14.4019 20.8595 14.7918 20.9292 15.2575 20.9149C15.7275 20.877 16.2005 20.7543 16.6764 20.5468C17.176 20.3435 17.657 20.0394 18.1195 19.6345C18.6056 19.2338 19.0098 18.7453 19.3322 18.169C19.6909 17.5261 19.8176 16.8173 19.7123 16.0427C19.6348 15.2487 19.283 14.6251 18.657 14.1718C18.4705 14.2604 18.2945 14.2899 18.1292 14.2604C17.9638 14.2308 17.8381 14.1839 17.752 14.1198ZM35.3062 14.5877C35.9685 14.9742 36.4895 15.4696 36.8691 16.0738C37.2724 16.6823 37.5448 17.3405 37.6865 18.0484C37.8323 18.7328 37.8558 19.4196 37.757 20.109C37.6818 20.8026 37.4969 21.4278 37.2023 21.9847C36.8242 22.5997 36.3773 23.1903 35.8617 23.7564C35.3461 24.3225 34.784 24.8072 34.1756 25.2104C33.5671 25.6137 32.9047 25.9098 32.1883 26.0987C31.4719 26.2875 30.712 26.3102 29.9088 26.1666C28.9401 25.9935 28.1652 25.6234 27.5839 25.0563C27.0026 24.4891 26.5863 23.8174 26.3349 23.0411C26.0836 22.2648 25.9791 21.4172 26.0214 20.4983C26.0874 19.5836 26.2715 18.6901 26.5737 17.8176C26.7864 17.173 27.054 16.5625 27.3764 15.9863C27.7267 15.3906 28.1213 14.8882 28.5601 14.479C29.0032 14.0462 29.4766 13.7164 29.9804 13.4895C30.5078 13.2668 31.0668 13.2082 31.6574 13.3138C31.9882 13.3729 32.389 13.5177 32.8598 13.7481C33.3348 13.9549 33.7638 14.2145 34.1469 14.5267C34.5047 14.2981 34.8911 14.3184 35.3062 14.5877ZM33.4972 16.934C33.2669 16.7221 32.9977 16.4546 32.6898 16.1314C32.4097 15.7888 32.1397 15.5942 31.8798 15.5478C31.5963 15.4971 31.2896 15.5764 30.9597 15.7856C30.6533 15.999 30.3622 16.2639 30.0862 16.5803C29.8381 16.8773 29.6115 17.1903 29.4064 17.5194C29.2013 17.8484 29.0561 18.115 28.9709 18.3192C28.8366 18.6609 28.7134 19.0777 28.6011 19.5696C28.4888 20.0616 28.4355 20.564 28.4414 21.0771C28.4514 21.5665 28.5505 22.0352 28.7386 22.4833C28.9545 22.912 29.3194 23.2576 29.8332 23.5201C30.1471 23.6737 30.5369 23.7434 31.0027 23.7291C31.4727 23.6912 31.9457 23.5685 32.4216 23.361C32.9212 23.1577 33.4022 22.8536 33.8646 22.4487C34.3507 22.0479 34.755 21.5594 35.0774 20.9832C35.4361 20.3403 35.5628 19.6315 35.4574 18.8569C35.3799 18.0628 35.0282 17.4392 34.4021 16.986C34.2157 17.0746 34.0397 17.1041 33.8743 17.0745C33.709 17.045 33.5832 16.9981 33.4972 16.934ZM52.5068 18.4665C52.6055 18.4598 52.7494 18.4733 52.9384 18.5071C53.1316 18.5172 53.3067 18.5607 53.4636 18.6375C53.6484 18.6949 53.7914 18.7814 53.8926 18.8971C54.0217 18.9933 54.0875 19.1026 54.09 19.2249C54.0866 19.5169 53.9929 19.7683 53.8089 19.9792C53.6528 20.1707 53.3946 20.3196 53.0343 20.4259C52.0605 20.6907 51.0407 21.0082 49.9749 21.3785C48.9134 21.7251 48.002 22.0498 47.2409 22.3526C47.6155 22.7121 48.0428 23.1177 48.5228 23.5692C49.0265 24.0249 49.5378 24.5064 50.0566 25.0136C50.5797 25.4971 51.0965 26.0161 51.6069 26.5706C52.1215 27.1014 52.6007 27.6259 53.0445 28.1441C53.4452 28.6302 53.4624 29.0111 53.0962 29.287C52.9249 29.427 52.6675 29.503 52.3241 29.5147C52.0043 29.5307 51.7153 29.4425 51.4571 29.25C50.9838 28.8973 50.4717 28.4888 49.9207 28.0246C49.374 27.5368 48.8155 27.0469 48.2452 26.5549C47.6791 26.0392 47.1227 25.5375 46.576 25.0497C46.0571 24.5425 45.5792 24.0792 45.1422 23.6598C45.0889 24.5035 45.0238 25.3452 44.9469 26.1848C44.8936 27.0286 44.8285 27.8703 44.7515 28.7098C44.8131 29.184 44.7358 29.5481 44.5198 29.8021C44.3037 30.056 44.0088 30.1374 43.635 30.0462C43.246 29.9036 42.9782 29.6972 42.8314 29.4272C42.6888 29.1335 42.6062 28.7774 42.5835 28.3589C42.6148 27.3649 42.6543 26.1895 42.7017 24.8327C42.7728 23.4801 42.8405 22.0781 42.9049 20.6268C42.9693 19.1755 43.0273 17.7596 43.079 16.3792C43.1543 15.003 43.2139 13.7824 43.258 12.7176C43.2699 12.3784 43.2978 12.0176 43.3417 11.6354C43.4135 11.2338 43.5899 10.9971 43.8709 10.9254C44.2506 10.847 44.602 10.9952 44.9251 11.3699C45.2525 11.7209 45.4578 12.2087 45.5413 12.8331C45.536 13.9536 45.5139 15.1687 45.4749 16.4783C45.4359 17.7878 45.3842 19.1683 45.3198 20.6196C45.843 20.4205 46.4413 20.2105 47.1147 19.9896C47.8159 19.7492 48.5011 19.5303 49.1703 19.333C49.8673 19.1162 50.5107 18.9265 51.1005 18.7637C51.6904 18.601 52.1591 18.5019 52.5068 18.4665ZM72.0266 22.1016C71.9826 22.4838 71.9336 22.9627 71.8795 23.5381C71.8533 24.0942 71.8207 24.6857 71.7818 25.3126C71.7471 25.9159 71.7124 26.5192 71.6777 27.1226C71.6666 27.7301 71.6522 28.2883 71.6344 28.7971C71.9872 28.3237 72.4201 27.7429 72.9333 27.0544C73.4464 26.3659 73.965 25.715 74.4891 25.1017C75.0411 24.4689 75.5719 23.9543 76.0816 23.5578C76.6192 23.1419 77.0651 22.9656 77.4195 23.0289C77.7975 23.0965 78.1063 23.3467 78.3459 23.7796C78.6133 24.1931 78.8187 24.6809 78.9621 25.2429C79.1054 25.8049 79.207 26.396 79.2668 27.0162C79.3503 27.6406 79.4109 28.1878 79.4488 28.6578C79.5982 28.3675 79.7776 28.0461 79.9869 27.6934C80.224 27.3213 80.4612 26.9493 80.6984 26.5772C80.9634 26.1857 81.2381 25.8081 81.5225 25.4445C81.8306 25.0851 82.142 24.7751 82.4567 24.5144C82.823 24.2385 83.196 24.0614 83.5757 23.983C83.9596 23.8809 84.2343 23.8447 84.3997 23.8742C84.6123 23.9122 84.8477 24.0275 85.1059 24.2199C85.3919 24.3929 85.6695 24.6132 85.9386 24.8807C86.2077 25.1482 86.4448 25.4588 86.6498 25.8124C86.8826 26.1465 87.0543 26.482 87.1648 26.8187C87.3815 27.5157 87.5168 28.2591 87.5707 29.0489C87.6482 29.8429 87.673 30.5909 87.645 31.293C87.6171 31.995 87.5664 32.6198 87.4929 33.1674C87.4472 33.6956 87.4172 34.0682 87.4028 34.285C87.3479 34.5922 87.2703 34.8221 87.1698 34.9748C87.0736 35.1039 86.9226 35.1988 86.7167 35.2595C86.4357 35.3312 86.2028 35.3383 86.018 35.2809C85.8374 35.1999 85.6986 35.0897 85.6016 34.9505C85.5046 34.8113 85.4333 34.6644 85.3878 34.51C85.3465 34.332 85.3246 34.1818 85.3221 34.0594C85.3483 33.5034 85.3648 32.9334 85.3717 32.3495C85.4021 31.7698 85.4166 31.2116 85.415 30.675C85.4176 30.1147 85.3881 29.5974 85.3266 29.1232C85.2929 28.6296 85.2369 28.1929 85.1585 27.8132C85.1281 27.7102 85.0666 27.5773 84.9738 27.4145C84.9088 27.2322 84.8181 27.0575 84.7017 26.8904C84.6089 26.7276 84.5119 26.5883 84.4107 26.4727C84.3094 26.3571 84.2373 26.2832 84.1943 26.2512C83.958 26.2089 83.6698 26.3891 83.3297 26.7915C82.9938 27.1703 82.6529 27.6457 82.3068 28.2178C81.9608 28.7898 81.6202 29.3994 81.2851 30.0465C80.9779 30.6743 80.7348 31.2159 80.5558 31.6716C80.446 32.2858 80.2456 32.7254 79.9544 32.9903C79.6675 33.2316 79.3941 33.329 79.1342 33.2826C78.8743 33.2361 78.6077 33.091 78.3344 32.8471C78.0888 32.5837 77.9421 32.3137 77.894 32.0369C77.8198 31.6336 77.7423 31.1809 77.6613 30.6788C77.5804 30.1767 77.4898 29.6607 77.3895 29.1308C77.3128 28.6051 77.2221 28.0891 77.1176 27.5828C77.0367 27.0808 76.9473 26.626 76.8495 26.2184C76.4385 26.6082 76.019 27.0452 75.5912 27.5294C75.1869 28.0179 74.7805 28.5183 74.3721 29.0304C73.9872 29.5467 73.6024 30.0631 73.2175 30.5794C72.8605 31.0763 72.5259 31.5163 72.2136 31.8994C72.0018 32.1297 71.7824 32.3343 71.5554 32.5131C71.3326 32.6683 71.0912 32.7227 70.8314 32.6763C70.6423 32.6425 70.4563 32.5239 70.2732 32.3205C70.0944 32.0935 69.9337 31.8332 69.7911 31.5395C69.6486 31.2459 69.5242 30.9189 69.4179 30.5586C69.3353 30.2025 69.2881 29.8527 69.2763 29.5093C69.2689 28.4596 69.302 27.3196 69.3756 26.0894C69.477 24.8397 69.5721 23.6255 69.6609 22.4468C69.7091 22.0409 69.8218 21.6832 69.999 21.3735C70.2041 21.0445 70.5062 20.8547 70.9053 20.8041C71.3197 20.805 71.6162 20.919 71.7951 21.146C71.9739 21.373 72.0511 21.6915 72.0266 22.1016ZM101.644 26.4443C102.306 26.8309 102.827 27.3263 103.207 27.9305C103.61 28.5389 103.882 29.1972 104.024 29.9051C104.17 30.5895 104.193 31.2763 104.095 31.9657C104.019 32.6593 103.835 33.2845 103.54 33.8413C103.162 34.4564 102.715 35.047 102.199 35.6131C101.684 36.1792 101.122 36.6639 100.513 37.0671C99.9048 37.4704 99.2424 37.7664 98.5259 37.9553C97.8095 38.1442 97.0497 38.1669 96.2464 38.0233C95.2778 37.8502 94.5028 37.4801 93.9215 36.9129C93.3402 36.3458 92.9239 35.6741 92.6726 34.8978C92.4213 34.1214 92.3168 33.2738 92.3591 32.3549C92.4251 31.4403 92.6091 30.5467 92.9114 29.6743C93.1241 29.0297 93.3917 28.4192 93.7141 27.843C94.0644 27.2473 94.4589 26.7449 94.8977 26.3357C95.3408 25.9029 95.8142 25.5731 96.318 25.3462C96.8454 25.1235 97.4044 25.0649 97.9951 25.1705C98.3258 25.2296 98.7266 25.3744 99.1974 25.6048C99.6724 25.8116 100.101 26.0711 100.485 26.3834C100.842 26.1548 101.229 26.1751 101.644 26.4443ZM99.8348 28.7907C99.6045 28.5788 99.3354 28.3113 99.0274 27.9881C98.7474 27.6455 98.4774 27.4509 98.2175 27.4045C97.934 27.3538 97.6273 27.4331 97.2973 27.6423C96.991 27.8557 96.6998 28.1206 96.4238 28.437C96.1757 28.734 95.9491 29.047 95.744 29.376C95.5389 29.7051 95.3938 29.9717 95.3085 30.1759C95.1743 30.5176 95.051 30.9344 94.9387 31.4263C94.8264 31.9182 94.7732 32.4207 94.779 32.9337C94.7891 33.4231 94.8881 33.8919 95.0762 34.34C95.2922 34.7687 95.6571 35.1142 96.1709 35.3767C96.4848 35.5304 96.8746 35.6 97.3404 35.5858C97.8104 35.5479 98.2833 35.4252 98.7593 35.2177C99.2588 35.0144 99.7398 34.7103 100.202 34.3053C100.688 33.9046 101.093 33.4161 101.415 32.8399C101.774 32.1969 101.9 31.4882 101.795 30.7135C101.718 29.9195 101.366 29.2959 100.74 28.8427C100.553 28.9313 100.377 28.9608 100.212 28.9312C100.047 28.9016 99.9209 28.8548 99.8348 28.7907ZM111.2 29.1031C111.156 29.4854 111.107 29.9642 111.053 30.5397C111.027 31.0957 110.994 31.6872 110.955 32.3142C110.92 32.9175 110.886 33.5208 110.851 34.1241C110.84 34.7316 110.825 35.2898 110.808 35.7986C111.16 35.3253 111.593 34.7444 112.107 34.0559C112.62 33.3675 113.138 32.7166 113.662 32.1032C114.214 31.4704 114.745 30.9558 115.255 30.5593C115.792 30.1434 116.238 29.9671 116.593 30.0305C116.971 30.098 117.28 30.3483 117.519 30.7812C117.787 31.1947 117.992 31.6824 118.135 32.2444C118.279 32.8064 118.38 33.3975 118.44 34.0177C118.524 34.6421 118.584 35.1893 118.622 35.6593C118.771 35.3691 118.951 35.0476 119.16 34.6949C119.397 34.3229 119.635 33.9508 119.872 33.5787C120.137 33.1872 120.411 32.8097 120.696 32.446C121.004 32.0866 121.315 31.7766 121.63 31.5159C121.996 31.24 122.369 31.0629 122.749 30.9845C123.133 30.8825 123.408 30.8462 123.573 30.8758C123.786 30.9138 124.021 31.029 124.279 31.2214C124.565 31.3944 124.843 31.6147 125.112 31.8822C125.381 32.1498 125.618 32.4603 125.823 32.8139C126.056 33.1481 126.228 33.4835 126.338 33.8202C126.555 34.5172 126.69 35.2606 126.744 36.0504C126.821 36.8444 126.846 37.5925 126.818 38.2945C126.79 38.9965 126.74 39.6214 126.666 40.169C126.62 40.6972 126.59 41.0697 126.576 41.2866C126.521 41.5937 126.444 41.8236 126.343 41.9763C126.247 42.1054 126.096 42.2003 125.89 42.261C125.609 42.3327 125.376 42.3398 125.191 42.2824C125.011 42.2014 124.872 42.0913 124.775 41.952C124.678 41.8128 124.607 41.666 124.561 41.5115C124.52 41.3335 124.498 41.1833 124.495 41.0609C124.522 40.5049 124.538 39.9349 124.545 39.351C124.575 38.7713 124.59 38.2131 124.588 37.6765C124.591 37.1162 124.561 36.599 124.5 36.1247C124.466 35.6311 124.41 35.1944 124.332 34.8147C124.301 34.7118 124.24 34.5789 124.147 34.416C124.082 34.2337 123.991 34.0591 123.875 33.892C123.782 33.7291 123.685 33.5899 123.584 33.4742C123.483 33.3586 123.411 33.2848 123.368 33.2527C123.131 33.2105 122.843 33.3906 122.503 33.793C122.167 34.1718 121.826 34.6473 121.48 35.2193C121.134 35.7913 120.793 36.4009 120.458 37.0481C120.151 37.6758 119.908 38.2175 119.729 38.6731C119.619 39.2874 119.419 39.727 119.128 39.9919C118.841 40.2331 118.567 40.3306 118.307 40.2841C118.048 40.2377 117.781 40.0925 117.508 39.8486C117.262 39.5853 117.115 39.3152 117.067 39.0385C116.993 38.6351 116.916 38.1824 116.835 37.6803C116.754 37.1783 116.663 36.6623 116.563 36.1324C116.486 35.6067 116.395 35.0907 116.291 34.5844C116.21 34.0823 116.121 33.6275 116.023 33.2199C115.612 33.6097 115.192 34.0467 114.764 34.531C114.36 35.0195 113.954 35.5198 113.545 36.0319C113.16 36.5482 112.776 37.0646 112.391 37.5809C112.034 38.0779 111.699 38.5179 111.387 38.9009C111.175 39.1312 110.956 39.3358 110.729 39.5146C110.506 39.6699 110.265 39.7243 110.005 39.6778C109.816 39.644 109.63 39.5254 109.447 39.3221C109.268 39.0951 109.107 38.8347 108.964 38.5411C108.822 38.2474 108.697 37.9204 108.591 37.5601C108.509 37.204 108.461 36.8542 108.45 36.5108C108.442 35.4611 108.475 34.3212 108.549 33.0909C108.65 31.8413 108.745 30.6271 108.834 29.4483C108.882 29.0424 108.995 28.6847 109.172 28.375C109.377 28.046 109.68 27.8562 110.079 27.8056C110.493 27.8065 110.79 27.9205 110.968 28.1475C111.147 28.3745 111.224 28.6931 111.2 29.1031ZM150.724 28.8167C150.326 29.8182 149.917 30.8058 149.5 31.7795C149.105 32.7574 148.723 33.7374 148.352 34.7195C147.982 35.7017 147.659 36.6922 147.382 37.6912C147.106 38.6902 146.913 39.704 146.802 40.7326C146.803 41.0009 146.712 41.2405 146.528 41.4515C146.367 41.6666 146.198 41.7948 146.02 41.8362C145.466 41.9323 145.112 41.7348 144.956 41.2437C144.887 39.9881 144.947 38.7675 145.135 37.582C145.346 36.4008 145.637 35.2461 146.01 34.118C146.406 32.9941 146.847 31.8905 147.333 30.8071C147.847 29.7044 148.359 28.6134 148.869 27.5343C149.071 27.0829 149.307 26.8568 149.575 26.856C149.843 26.8552 150.087 26.9231 150.307 27.0599C150.64 27.2413 150.822 27.5177 150.853 27.889C150.884 28.2603 150.841 28.5695 150.724 28.8167ZM145.899 47.6292C145.852 47.8891 145.754 48.2371 145.602 48.6734C145.479 49.0902 145.313 49.4749 145.104 49.8276C144.918 50.1845 144.686 50.46 144.407 50.654C144.152 50.8522 143.872 50.8509 143.567 50.6501C143.399 50.4982 143.25 50.2399 143.12 49.8754C142.99 49.5108 142.963 49.1889 143.037 48.9097C143.185 48.3511 143.403 47.817 143.689 47.3074C143.975 46.7978 144.282 46.5114 144.611 46.4481C144.761 46.4262 144.914 46.4537 145.071 46.5305C145.252 46.6115 145.402 46.7237 145.523 46.8672C145.648 46.9871 145.745 47.1263 145.814 47.2849C145.887 47.42 145.916 47.5347 145.899 47.6292Z" fill="#206EF4"></path></svg>